<svg width="357" height="210" viewBox="0 0 357 210" fill="none" xmlns="http://www.w3.org/2000/svg">
<g clip-path="url(#clip0_408_798)">
<path d="M105.498 104.128C101.701 104.128 98.5437 103.509 96.0264 102.272C93.509 100.992 91.525 99.1573 90.0744 96.768C88.6237 94.3787 87.5784 91.4987 86.9384 88.128C86.341 84.7573 86.0424 80.96 86.0424 76.736L99.6104 75.456C99.6104 77.504 99.6744 79.488 99.8024 81.408C99.973 83.2853 100.25 84.992 100.634 86.528C101.061 88.0213 101.658 89.216 102.426 90.112C103.237 91.008 104.261 91.456 105.498 91.456C107.546 91.456 108.997 90.5173 109.85 88.64C110.704 86.72 111.13 84.416 111.13 81.728C111.13 79.04 110.426 76.2453 109.018 73.344C107.61 70.4427 105.925 67.6907 103.962 65.088C100.634 60.6507 97.7117 56.5333 95.1944 52.736C92.7197 48.9387 90.7784 45.2053 89.3704 41.536C88.005 37.8667 87.3224 34.0267 87.3224 30.016C87.3224 26.8587 87.7277 23.9573 88.5384 21.312C89.349 18.624 90.5224 16.2987 92.0584 14.336C93.637 12.3307 95.5357 10.7733 97.7544 9.664C99.973 8.55467 102.512 8 105.37 8C108.912 8 111.898 8.59733 114.33 9.792C116.805 10.9867 118.789 12.6933 120.282 14.912C121.818 17.1307 122.928 19.776 123.61 22.848C124.336 25.8773 124.698 29.248 124.698 32.96L111.13 34.24C111.13 32.6613 111.045 31.0827 110.874 29.504C110.746 27.8827 110.49 26.4107 110.106 25.088C109.722 23.7653 109.168 22.6987 108.442 21.888C107.717 21.0773 106.778 20.672 105.626 20.672C103.834 20.672 102.597 21.44 101.914 22.976C101.232 24.4693 100.89 26.6027 100.89 29.376C100.89 32.96 101.85 36.416 103.77 39.744C105.69 43.072 108.272 46.9547 111.514 51.392C115.397 56.64 118.554 61.4613 120.986 65.856C123.461 70.2507 124.698 75.1147 124.698 80.448C124.698 83.8187 124.336 86.9547 123.61 89.856C122.885 92.7147 121.733 95.2107 120.154 97.344C118.618 99.4773 116.634 101.141 114.202 102.336C111.813 103.531 108.912 104.128 105.498 104.128Z" fill="white"/>
<path d="M130.189 115.024L130.188 33.088H143.116V37.696C144.738 36.16 146.444 34.8373 148.236 33.728C150.028 32.6187 151.735 32.064 153.356 32.064C155.575 32.064 157.41 32.7467 158.86 34.112C160.354 35.4347 161.463 37.1413 162.188 39.232C162.956 41.3227 163.34 43.4987 163.34 45.76V90.432C163.34 92.6933 162.956 94.8907 162.188 97.024C161.42 99.1147 160.29 100.821 158.796 102.144C157.303 103.467 155.49 104.128 153.356 104.128C151.564 104.128 149.815 103.573 148.108 102.464C146.402 101.312 144.738 99.9893 143.116 98.496L143.117 115.024H130.189ZM147.596 91.968C148.578 91.968 149.282 91.6693 149.708 91.072C150.178 90.4747 150.412 89.5787 150.412 88.384V49.088C150.412 47.4667 150.178 46.2507 149.708 45.44C149.282 44.6293 148.578 44.224 147.596 44.224C146.658 44.224 145.676 44.6293 144.652 45.44C143.628 46.208 143.116 47.2107 143.116 48.448V87.744C143.116 88.768 143.628 89.728 144.652 90.624C145.676 91.52 146.658 91.968 147.596 91.968Z" fill="white"/>
<path d="M169.703 103.104V33.088H182.631V103.104H169.703Z" fill="white"/>
<path d="M205.56 104.064C199.886 104.064 195.704 102.293 193.016 98.752C190.371 95.2107 189.048 90.2827 189.048 83.968V52.16C189.048 45.8027 190.371 40.8747 193.016 37.376C195.704 33.8347 199.886 32.064 205.56 32.064C211.235 32.064 215.416 33.8347 218.104 37.376C220.835 40.9173 222.2 45.8453 222.2 52.16V57.664H209.272V50.496C209.272 48.5333 209.016 46.8907 208.504 45.568C207.992 44.2453 207.011 43.584 205.56 43.584C204.11 43.584 203.15 44.2667 202.68 45.632C202.211 46.9547 201.976 48.576 201.976 50.496V85.632C201.976 87.552 202.211 89.1947 202.68 90.56C203.15 91.8827 204.11 92.544 205.56 92.544C207.011 92.544 207.992 91.8827 208.504 90.56C209.016 89.2373 209.272 87.5947 209.272 85.632V78.464H222.2V83.968C222.2 90.2827 220.835 95.2107 218.104 98.752C215.416 102.293 211.235 104.064 205.56 104.064Z" fill="white"/>
<path d="M230.434 128.192C229.88 128.192 227.006 128.235 226.238 128.192C225.47 128.149 151.779 128 151.053 127.872V116.416C151.181 116.459 225.738 116.604 227.238 116.604C228.238 116.604 228.568 116.604 228.738 116.604C231.128 116.604 232.632 116.032 234.082 114.752C235.576 113.472 236.621 111.765 237.218 109.632C237.432 108.992 237.538 108.245 237.538 107.392C237.581 106.539 237.602 105.792 237.602 105.152L225.698 33.088H238.37L243.49 76.736L243.746 81.6H244.258L244.514 76.736L249.634 33.088H262.306L249.89 108.352C249.421 112.107 248.354 115.477 246.69 118.464C245.069 121.493 242.893 123.861 240.162 125.568C237.432 127.317 234.189 128.192 230.434 128.192Z" fill="white"/>
<path d="M106.65 210.128C102.725 210.128 99.3757 209.253 96.6024 207.504C93.8717 205.712 91.781 203.28 90.3304 200.208C88.9224 197.136 88.2184 193.659 88.2184 189.776V134.352C88.2184 130.512 88.9437 127.056 90.3944 123.984C91.8877 120.912 94.021 118.48 96.7944 116.688C99.5677 114.896 102.853 114 106.65 114C109.509 114 112.069 114.533 114.33 115.6C116.592 116.667 118.512 118.139 120.09 120.016C121.712 121.851 122.949 124.005 123.802 126.48C124.656 128.912 125.082 131.536 125.082 134.352V147.28H112.154V134.352C112.154 132.389 111.749 130.747 110.938 129.424C110.128 128.101 108.784 127.44 106.906 127.44C105.2 127.44 103.962 128.123 103.194 129.488C102.426 130.853 102.042 132.475 102.042 134.352V189.776C102.042 191.653 102.448 193.275 103.258 194.64C104.112 196.005 105.328 196.688 106.906 196.688C108.826 196.688 110.17 196.027 110.938 194.704C111.749 193.381 112.154 191.739 112.154 189.776V176.848H125.082V189.776C125.082 193.616 124.336 197.072 122.842 200.144C121.349 203.216 119.216 205.648 116.442 207.44C113.712 209.232 110.448 210.128 106.65 210.128Z" fill="white"/>
<path d="M130.189 209.104V115.024H143.117V143.888C144.227 142.736 145.869 141.477 148.045 140.112C150.221 138.747 152.291 138.064 154.253 138.064C156.387 138.064 158.179 138.683 159.629 139.92C161.08 141.157 162.168 142.821 162.893 144.912C163.619 146.96 163.981 149.243 163.981 151.76V209.104H151.053V154.448C151.053 153.168 150.755 152.144 150.157 151.376C149.603 150.565 148.941 150.16 148.173 150.16C147.277 150.16 146.211 150.672 144.973 151.696C143.736 152.677 143.117 153.787 143.117 155.024V209.104H130.189Z" fill="white"/>
<path d="M177.863 210.128C174.877 210.128 172.295 208.613 170.119 205.584C167.943 202.555 166.855 197.925 166.855 191.696C166.855 185.68 168.135 180.837 170.695 177.168C173.298 173.499 177.181 170.32 182.343 167.632C183.965 166.779 185.33 166.011 186.439 165.328C187.549 164.645 188.231 164.005 188.487 163.408V155.728C188.487 153.979 188.274 152.485 187.847 151.248C187.463 149.968 186.482 149.328 184.903 149.328C183.453 149.328 182.471 150.011 181.959 151.376C181.447 152.699 181.191 154.363 181.191 156.368V159.696H168.263V156.752C168.263 152.912 169.01 149.605 170.503 146.832C172.039 144.016 174.109 141.861 176.711 140.368C179.357 138.832 182.343 138.064 185.671 138.064C188.871 138.064 191.645 138.811 193.991 140.304C196.338 141.755 198.151 143.781 199.431 146.384C200.754 148.944 201.415 151.888 201.415 155.216V196.944C201.415 200.059 201.501 202.491 201.671 204.24C201.842 205.947 202.055 207.568 202.311 209.104H189.639C189.085 208.421 188.743 207.419 188.615 206.096C188.53 204.773 188.487 203.899 188.487 203.472H187.591C186.525 205.435 185.159 207.035 183.495 208.272C181.874 209.509 179.997 210.128 177.863 210.128ZM183.111 197.456C184.605 197.456 185.863 196.944 186.887 195.92C187.954 194.896 188.487 193.787 188.487 192.592V175.952C185.373 177.275 183.09 179.28 181.639 181.968C180.231 184.613 179.527 187.6 179.527 190.928C179.527 192.379 179.805 193.829 180.359 195.28C180.914 196.731 181.831 197.456 183.111 197.456Z" fill="white"/>
<path d="M208.69 209.104V139.088H221.618V144.976C223.154 143.483 224.882 141.968 226.802 140.432C228.722 138.853 230.493 138.064 232.114 138.064C234.248 138.064 236.04 138.747 237.49 140.112C238.941 141.477 240.029 143.205 240.754 145.296C241.48 147.387 241.842 149.541 241.842 151.76V209.104H228.914V154.32C228.914 152.955 228.68 151.995 228.21 151.44C227.741 150.885 226.952 150.608 225.842 150.608C224.904 150.608 224.093 150.949 223.41 151.632C222.77 152.272 222.173 153.04 221.618 153.936V209.104H208.69Z" fill="white"/>
<path d="M264.062 210.064C258.388 210.064 254.206 208.293 251.518 204.752C248.873 201.211 247.55 196.283 247.55 189.968V158.16C247.55 151.803 248.873 146.875 251.518 143.376C254.206 139.835 258.388 138.064 264.062 138.064C269.737 138.064 273.918 139.835 276.606 143.376C279.337 146.917 280.702 151.845 280.702 158.16V163.664H267.774V156.496C267.774 154.533 267.518 152.891 267.006 151.568C266.494 150.245 265.513 149.584 264.062 149.584C262.612 149.584 261.652 150.267 261.182 151.632C260.713 152.955 260.478 154.576 260.478 156.496V191.632C260.478 193.552 260.713 195.195 261.182 196.56C261.652 197.883 262.612 198.544 264.062 198.544C265.513 198.544 266.494 197.883 267.006 196.56C267.518 195.237 267.774 193.595 267.774 191.632V184.464H280.702V189.968C280.702 196.283 279.337 201.211 276.606 204.752C273.918 208.293 269.737 210.064 264.062 210.064Z" fill="white"/>
<path d="M302.44 210.128C297.278 210.128 293.203 208.357 290.216 204.816C287.272 201.232 285.8 196.859 285.8 191.696V156.496C285.8 151.035 287.272 146.597 290.216 143.184C293.16 139.771 297.278 138.064 302.568 138.064C306.024 138.064 308.99 138.853 311.464 140.432C313.982 142.011 315.902 144.165 317.224 146.896C318.547 149.584 319.208 152.656 319.208 156.112V176.464H297.832V191.696C297.832 193.445 298.216 195.067 298.984 196.56C299.795 198.011 300.99 198.736 302.568 198.736C304.232 198.736 305.406 198.053 306.088 196.688C306.814 195.323 307.176 193.659 307.176 191.696V184.016H319.208V192.08C319.208 197.499 317.736 201.872 314.792 205.2C311.891 208.485 307.774 210.128 302.44 210.128ZM297.832 166.352H307.176V156.496C307.176 154.576 306.835 152.912 306.152 151.504C305.512 150.053 304.318 149.328 302.568 149.328C300.947 149.328 299.752 150.075 298.984 151.568C298.216 153.019 297.832 154.661 297.832 156.496V166.352Z" fill="white"/>
<path d="M341.208 210.128C338.179 210.128 335.534 209.616 333.272 208.592C331.011 207.568 329.134 206.117 327.64 204.24C326.147 202.32 325.016 200.059 324.248 197.456C323.523 194.853 323.16 191.952 323.16 188.752H335.192C335.192 191.611 335.64 194.107 336.536 196.24C337.475 198.331 339.032 199.376 341.208 199.376C343.086 199.376 344.302 198.587 344.856 197.008C345.411 195.429 345.688 193.616 345.688 191.568C345.688 189.179 344.75 186.747 342.872 184.272C341.038 181.755 339.118 179.515 337.112 177.552C333.656 174.139 330.776 170.768 328.472 167.44C326.211 164.112 325.08 160.208 325.08 155.728C325.08 150.437 326.467 146.171 329.24 142.928C332.014 139.685 335.96 138.064 341.08 138.064C344.152 138.064 346.734 138.469 348.824 139.28C350.958 140.091 352.664 141.307 353.944 142.928C355.224 144.549 356.142 146.533 356.696 148.88C357.294 151.227 357.592 153.936 357.592 157.008H345.56C345.56 154.789 345.326 152.869 344.856 151.248C344.387 149.627 343.214 148.816 341.336 148.816C339.8 148.816 338.712 149.477 338.072 150.8C337.432 152.08 337.112 153.723 337.112 155.728C337.112 158.075 337.667 160.165 338.776 162C339.928 163.792 341.827 165.989 344.472 168.592C347.8 171.835 350.83 175.291 353.56 178.96C356.334 182.629 357.72 186.619 357.72 190.928C357.72 193.744 357.336 196.325 356.568 198.672C355.843 201.019 354.755 203.045 353.304 204.752C351.896 206.459 350.168 207.781 348.12 208.72C346.115 209.659 343.811 210.128 341.208 210.128Z" fill="white"/>
<path fill-rule="evenodd" clip-rule="evenodd" d="M1 18.104C1 12.5812 5.47715 8.104 11 8.104H51.5148C57.0376 8.104 61.5148 12.5812 61.5148 18.104V58.6188C61.5148 64.1416 57.0376 68.6188 51.5148 68.6188H11C5.47715 68.6188 1 64.1416 1 58.6188V18.104ZM27.4221 29.412C27.4221 31.7656 25.5141 33.6736 23.1604 33.6736C20.8068 33.6736 18.8988 31.7656 18.8988 29.412C18.8988 27.0584 20.8068 25.1504 23.1604 25.1504C25.5141 25.1504 27.4221 27.0584 27.4221 29.412ZM40.2066 33.6736C42.5603 33.6736 44.4683 31.7656 44.4683 29.412C44.4683 27.0584 42.5603 25.1504 40.2066 25.1504C37.853 25.1504 35.945 27.0584 35.945 29.412C35.945 31.7656 37.853 33.6736 40.2066 33.6736ZM27.4219 46.4585C27.4219 48.8121 25.5139 50.7201 23.1603 50.7201C20.8067 50.7201 18.8987 48.8121 18.8987 46.4585C18.8987 44.1049 20.8067 42.1969 23.1603 42.1969C25.5139 42.1969 27.4219 44.1049 27.4219 46.4585ZM40.2066 50.7201C42.5603 50.7201 44.4683 48.8121 44.4683 46.4585C44.4683 44.1049 42.5603 42.1969 40.2066 42.1969C37.853 42.1969 35.945 44.1049 35.945 46.4585C35.945 48.8121 37.853 50.7201 40.2066 50.7201Z" fill="white"/>
<path fill-rule="evenodd" clip-rule="evenodd" d="M1 88.8466C1 83.3237 5.47715 78.8466 11 78.8466H51.5148C57.0376 78.8466 61.5148 83.3237 61.5148 88.8466V129.361C61.5148 134.884 57.0376 139.361 51.5148 139.361H11C5.47715 139.361 1 134.884 1 129.361V88.8466ZM27.4221 94.1885C27.4221 96.5421 25.5141 98.4501 23.1604 98.4501C20.8068 98.4501 18.8988 96.5421 18.8988 94.1885C18.8988 91.8349 20.8068 89.9269 23.1604 89.9269C25.5141 89.9269 27.4221 91.8349 27.4221 94.1885ZM40.2066 98.4502C42.5603 98.4502 44.4683 96.5422 44.4683 94.1886C44.4683 91.835 42.5603 89.927 40.2066 89.927C37.853 89.927 35.945 91.835 35.945 94.1886C35.945 96.5422 37.853 98.4502 40.2066 98.4502ZM27.4219 108.678C27.4219 111.032 25.5139 112.94 23.1603 112.94C20.8067 112.94 18.8987 111.032 18.8987 108.678C18.8987 106.324 20.8067 104.416 23.1603 104.416C25.5139 104.416 27.4219 106.324 27.4219 108.678ZM40.2066 112.94C42.5603 112.94 44.4683 111.032 44.4683 108.678C44.4683 106.324 42.5603 104.416 40.2066 104.416C37.853 104.416 35.945 106.324 35.945 108.678C35.945 111.032 37.853 112.94 40.2066 112.94ZM27.4219 123.167C27.4219 125.521 25.5139 127.429 23.1603 127.429C20.8067 127.429 18.8987 125.521 18.8987 123.167C18.8987 120.814 20.8067 118.906 23.1603 118.906C25.5139 118.906 27.4219 120.814 27.4219 123.167ZM40.2066 127.429C42.5603 127.429 44.4683 125.521 44.4683 123.167C44.4683 120.814 42.5603 118.906 40.2066 118.906C37.853 118.906 35.945 120.814 35.945 123.167C35.945 125.521 37.853 127.429 40.2066 127.429Z" fill="white"/>
<path fill-rule="evenodd" clip-rule="evenodd" d="M11 149.589C5.47715 149.589 1 154.066 1 159.589V200.104C1 205.627 5.47715 210.104 11 210.104H51.5148C57.0376 210.104 61.5148 205.627 61.5148 200.104V159.589C61.5148 154.066 57.0376 149.589 51.5148 149.589H11ZM30.2913 164.609L29.297 165.921C28.2653 167.282 27.706 168.951 27.706 170.657C27.706 172.751 28.545 174.765 30.0365 176.244L32.4355 178.621C33.2247 179.403 33.6722 180.469 33.6722 181.578V181.818C33.6722 183.992 31.8886 185.76 29.6947 185.76C27.5009 185.76 25.7172 183.992 25.7172 181.818V176.311C25.7172 175.541 25.0895 174.919 24.3127 174.919C23.9398 174.919 23.5793 175.067 23.3183 175.326L23.1008 175.541C20.9567 177.666 19.751 180.549 19.751 183.555V183.789C19.751 190.318 25.0957 195.615 31.6835 195.615H32.7835C38.7684 195.615 43.616 190.81 43.616 184.879C43.616 180.721 41.9007 176.742 38.8678 173.872L33.6038 168.895C33.0134 168.341 32.6778 167.565 32.6778 166.758V165.391C32.6778 164.67 32.0812 164.079 31.3541 164.079C30.9377 164.079 30.5399 164.276 30.2913 164.609Z" fill="white"/>
<path d="M173.8 1.57676L174.717 0.453516C174.946 0.16875 175.313 0 175.696 0C176.367 0 176.917 0.50625 176.917 1.12324V2.29395C176.917 2.98477 177.226 3.64922 177.77 4.12383L182.623 8.38477C185.419 10.8422 187 14.2488 187 17.8084C187 22.8867 182.531 27 177.014 27H176C169.927 27 165 22.4648 165 16.875V16.6746C165 14.1012 166.111 11.6332 168.088 9.81387L168.289 9.6293C168.529 9.40781 168.861 9.28125 169.205 9.28125C169.921 9.28125 170.5 9.81387 170.5 10.473V15.1875C170.5 17.049 172.144 18.5625 174.167 18.5625C176.189 18.5625 177.833 17.049 177.833 15.1875V14.9818C177.833 14.0326 177.421 13.1203 176.693 12.4506L174.482 10.415C173.107 9.14941 172.333 7.425 172.333 5.63203C172.333 4.17129 172.849 2.74219 173.8 1.57676Z" fill="white"/>
</g>
<defs>
<clipPath id="clip0_408_798">
<rect width="357" height="210" fill="white"/>
</clipPath>
</defs>
</svg>
